<?xml version='1.0' encoding='utf-8'?>
<svg xmlns="http://www.w3.org/2000/svg" version="1.1" viewBox="0 0 304 229"> <g transform="translate(-317.12 -70.882)"> <g transform="matrix(.45641 0 0 .46012 305.87 -7.9675)" stroke="#000"> <path d="m512.74 540.48v45.714c-19.403 10.119-20.556 37.487-8.5714 50 4.3486 1.1351 6.9982 3.9693 15.774 0.67677 7.2597 4.1696 11.981 2.417 16.428 0.0233 5.709 2.5468 11.418 4.3935 17.127 0.37233 5.931 3.4045 11.406 3.618 16.385 0.35619 27.151 5.886 10.499-61.232 5.7143-108.57" fill="#d8b400" stroke-width="6.5465"/> <path d="m151.43 343.79c-13.967 20.476-12.614 23.81-5.7143 45.714-16.669 18.754-29.35 47.451-87.143 30 13.83 140.35 163 142.62 205.71 138.57l-1.4286 24.286-30 15.714c-19.403 10.119-20.556 37.487-8.5714 50 3.9104 3.5085 13.821 2.6583 16.789 0.51344 4.6701 1.694 9.3348 3.3717 12.145-0.51335l62.494 1.4285 57.143-202.86-90-102.86z" fill="#ffd400" stroke-width="6.5465"/> <path d="m305.71 560.93c6.1485 20.434-1.6301 26.941-11.429 31.429l-30 15.714c-19.403 10.119-20.556 37.487-8.5714 50 4.3236 0.89315 6.3572 4.5431 15.002 0.2344 5.9477 3.3952 11.429 3.5281 16.425 0.25664 4.6689 2.0797 9.4031 3.7677 15.007 0.23449 8.4506 3.8425 13.113 2.0023 17.853 0.27895 8.6519 2.5136 17.543 3.5917 27.142 0.42409 31.331-21.355 8.567-75.339 48.571-118.57" fill="#ffd400" stroke-width="6.5465"/> <path d="m532.46 555.22v45.714c-19.403 10.119-20.556 37.487-8.5714 50 4.3486 1.1351 6.9982 3.9693 15.774 0.67677 7.2597 4.1696 11.981 2.417 16.428 0.0233 5.709 2.5468 11.418 4.3935 17.127 0.37233 5.931 3.4045 11.406 3.618 16.385 0.35619 27.151 5.886 10.499-61.232 5.7143-108.57" fill="#ffd400" stroke-width="6.5465"/> <path d="m272.18 503.03c0.56627-22.897 10.089-42.948 22.404-56.038-9.5731 1.6893-16.28 13.157-22.846 22.57 1.4374-8.79 12.097-40.71 21.454-44.429-4.7-9.0989-13.183 6.1523-20.945 12.708 1.3336-7.2676 6.0659-24.639 19.061-39.615-12.71-8.7935-14.272 6.8797-19.746 21.448-1.5516-17.797 5.8479-33.285 8.5522-43.24-4.9856 3.1357-7.3568 3.3108-12.841 23.506-1.606-8.7554-9.1541-20.374-5.5986-29.709-2.4139 14.52-3.8102 14.205-2.3876 26.775-6.9458-12.504-14.594-18.492-21.572-32.961-2.7231 10.838 9.0523 18.12 9.1066 32.55-11.675-10.751-19.358-18.28-20.613-31.139-7.5689 7.7883-5.1295 14.314 2.5869 30.102-8.1599-0.6394-19.912-18.544-24.009-27.621-0.16516 8.6647-6.2042 19.603 0.91434 26.362-4.3644-1.0475-8.7132-7.0939-17.224-25.953-1.7248 15.959-11.475 12.808-5.2698 23.833-11.267-8.8133-8.7395-9.9523-10.12-25.956-11.952 3.1018-22.239 8.3667-17.787 20.988-10.117-12.23-10.746-27.664 1.6274-34.285-11.279-2.8739-26.092 18.181-24.304 28.873-4.8844-6.5663 8.6046-37.235 16.812-42.875-14.618 0.36255-23.019 18.383-32.357 29.966-1.0795-10.512 2.7787-44.817 28.83-45.042-20.06 1.4906-41.103 21.852-49.067 39.217 1.9981-29.115 24.203-71.63 53.647-61.794-16.01-6.7701-42.423-8.3809-70.554 24.289 1.9922-26.238 35.731-55.84 84.284-43.29-18.638-11.964-49.38-25.524-75.682-8.297 11.303-32.639 78.998-18.719 96.462-7.6207-7.3151-14.29-22.646-12.717-33.69-18.888 14.21 1.6446 31.258 4.1822 43.382 14.721-0.61867-21.461-37.552-23.956-48.838-30.828 15.972-3.345 53.764 4.6905 68.512 23.65 6.7222-22.162-32.272-34.245-42.145-41.927 23.204 2.5719 44.581 13.191 68.542 32.404 3.1491-17.508-37.935-38.71-51.889-46.152 13.382 3.7036 49.069 9.4492 75.72 38.936 1.1469-11.116-39.019-41.877-47.775-51.999 13.886 7.6876 42.755 19.086 70.497 46.877 9.201-8.6286-21.976-42.19-29.229-48.804 4.3847 0.95904 42.588 30.705 60.614 47.554 9.284-11.46-16.414-41.665-23.649-52.925 12.658 9.5759 38.184 38.576 50.75 50.309 9.1893-8.1365-6.572-39.174-15.413-45.451 8.1008 1.1703 32.022 34.783 41.909 43.921 6.8125-16.031-6.9965-32.24-12.701-43.533 10.861 9.3104 27.973 27.807 33.761 42.793 3.5885-10.583-0.19974-29.804-6.3705-41.68 11.726 10.698 16.835 30.287 28.335 43.1 9.8588-7.2803 0.46094-37.578-7.7985-44.603 7.9678 1.8729 24.762 33.141 33.528 43.251 8.759-15.158 5.982-26.75 1.4648-38.567 9.8494 10.374 18.522 27.089 22.367 42.686 4.8988-10.044 7.3093-27.915 2.5823-40.437 10.382 12.006 9.897 30.499 19.018 45.014 10.968-5.4203 14.257-29.773 7.2269-38.027 7.5658 3.1224 12.503 31.84 19.064 43.512 11.659-13.027 5.1527-26.635 2.9992-39.101 7.3037 8.6872 14.555 27.758 19.193 46.675 6.9705-8.7342 6.4026-25.128 4.3856-38.358 7.6553 13.904 10.067 30.923 15.497 47.207 8.7693-4.2277 8.0571-28.77 1.5206-42.481 9.8462 11.225 18.648 30.677 16.238 52.558 15.902-12.42 23.855-18.11 25.244-30.685 4.0127 13.731 0.25299 30.708-4.7796 45.963 9.4878-5.9042 19.72-15.766 21.959-28.961 2.9029 15.604-6.5433 26.553-7.4908 43.669 11.958 2.0274 28.446-15.298 27.305-26.08 4.4811 6.849-8.9918 31.422-11.949 44.449 17.405-1.6029 20.531-12.051 27.086-22.871-2.1436 14.143-3.4643 27.984-15.153 39.002 11.154-0.67448 17.525-7.5756 25.58-18.263-4.5973 15.191-9.4399 24.349-18.626 38.832 9.5257 7.5847 23.172-6.6208 27.519-16.553 0.50194 8.1691-11.034 31.21-19.923 35.701 8.6636-0.21397 23.299-4.371 29.833-11.696-0.83479 4.3947 0.3833 15.984-27.447 34.178 10.907 12.178 19.366 5.1696 31.294-1.4537-10.795 12.694-19.973 22.342-33.991 33.138 5.8458 11.594 24.304 9.6335 32.056 1.3637-2.5956 8.4682-21.378 23.801-33.257 30.368 12.406 13.538 16.824 10.575 29.354 8.6685-12.321 7.9283-18.395 19.263-34.367 17.393 11.807 12.072 25.702 10.651 39.067 9.8764-14.587 6.8246-25.366 8.1776-42.236 11.021 0.52706 13.292 17.236 15.007 27.564 11.404-5.799 6.3011-29.065 13.816-45.426 14.482 5.1588 11.341 14.332 6.6703 27.985 11.776-14.159 3.2684-23.463 17.503-44.219 1.7182 3.9831 13.214 13.03 13.613 27.06 20.189-17.722 0.55626-25.29 11.872-47.118-7.6647-5.2249 14.069 10.038 23.527 22.31 25.217-8.7769 3.4774-33.925-5.4312-41.957-14.199 3.3167 10.163 15.44 22.058 25.713 26.922-5.087 0.63834-26.118-0.20294-43.066-18.132 4.8722 19.263 16.828 17.637 27.616 28.099-15.427-5.8081-37.73-9.0995-47.818-22.738-0.18497 12.19 1.9054 12.507 12.821 24.157-16.517-8.0983-24.015-8.8214-38.29-19.254 5.0534 14.496 7.927 19.018 17.731 24.069-8.1805 0.29199-33.504-17.826-38.304-27.345 0.51837 9.4379 9.62 21.818 17.08 28.779-4.4129-0.89421-20.927-6.2356-31.744-25.48 0.29736 17.511 10.179 17.828 16.92 29.507-11.688-8.9977-26.767-12.987-33.431-28.932-2.9554 11.757 6.3593 15.97 13.353 28.42-12.451-10.739-25.284-16.042-36.803-29.925-5.8096 6.3189-7.9034 12.357 1.4166 26.567-16.567-8.0413-20.918-16.443-32.665-31.035-5.3915 9.5282 0.13539 10.412 8.1546 25.704-20.881-9.1002-24.786-14.711-31.678-31.862-11.581 3.941-3.9639 20.271 1.901 30.219-7.0808-4.4778-24.369-30.081-22.752-40.8-4.9368 7.77-2.311 25.807-0.0334 36.223-3.0858-3.5553-19.318-23.26-14.741-45.273-10.996 12.758-6.0443 20.71-7.3576 34.436-4.0949-14.952-12.933-31.812-6.716-47.97-9.9224 5.6064-4.1629 26.328-7.5216 40.46-1.5582-17.231-7.9082-38.965-4.5485-57.345-11.414-4.104-10.703 19.528-10.947 31.352-3.57-8.0345-5.1154-50.926 2.0241-58.5-8.2033 3.049-18.332 20.559-22.089 30.451-3.1871-19.406 3.461-34.867 17.754-56.428-9.323-4.4468-13.47 14.633-25.679 30.944z" fill="#7e2800" stroke-width="6.5465"/> <path transform="translate(10.102 6.0609)" d="m78.792 416.98c0 16.179-12.663 29.294-28.284 29.294s-28.284-13.116-28.284-29.294c0-16.179 12.663-29.294 28.284-29.294s28.284 13.116 28.284 29.294z" color="#000000" fill="#df5e0a" stroke-width="6.5465"/> <path d="m205.21 432.52c0.258 4.7684-1.9307 10.377-4.711 13.246-5.9556 6.1462-12.659 5.4766-20.116 11.137-4.7904-4.1689-11.899-13.648-13.53-23.116-3.4183-19.833 6.8795-31.836 17.472-32.186 10.592-0.3501 19.943 13.492 20.886 30.918z" color="#000000" fill="#fff" stroke-width="6.1857"/> <path transform="matrix(.63081 -.098341 .11525 .73924 6.2504 -93.89)" d="m169.71 728.1c0 9.4842-7.2362 17.173-16.162 17.173-8.9263 0-16.162-7.6884-16.162-17.173 0-9.4842 7.2362-17.173 16.162-17.173 8.9263 0 16.162 7.6884 16.162 17.173z" color="#000000" stroke-width="8.9501"/> <path d="m170.41 540.19c10.821-2.0814 13.598-3.3635 15.892-9.7085 0 0-0.18323 6.0835-3.5609 8.6117-2.4576 1.8395-12.331 1.0968-12.331 1.0968z" stroke-width="2.1822px"/> <path d="m132.14 528.43s30.129 8.8734 43.214 1.7857c14.2-7.69 22.15-41.43 22.15-41.43" fill="none" stroke-linecap="round" stroke-width="8.7287"/> <path d="m235.71 308.1c-2.8408-4.7462-16.141-6.726-17.996-11.846 5.0087 1.2994 13.423 2.1726 18.132 2.6847-0.17711-7.5301-4.8441-8.9767-11.867-15.651 6.8476 3.3042 10.369-1.1468 19.164 7.8225-2.7015-9.0749 0.48751-12.116-1.3678-19.175 6.727 6.9155 6.8001 10.794 9.9709 19.437 6.186-0.60595 5.2984-8.177 6.7848-13.411 2.0071 6.1843 2.5166 11.662 1.7149 19.268" fill="none" stroke-width="4.3643"/> <path d="m403.99 298.59c1.834-6.9578-11.035-15.989-22.262-17.496 12.381-5.8238 17.459-5.0099 31.091 5.993-1.2892-10.873-0.61175-17.196-12.735-28.166 11.504 6.073 14.479 4.4388 27.604 20.987 3.6983-16.754-0.2722-17.588-2.2366-30.69 7.3446 10.269 11.034 13.652 20.09 26.707 6.204-6.4623 6.4763-16.568 10.328-31.863 0.52227 9.5608 2.1513 24.865 4.9421 32.714 4.3758-10.036 13.891-22.437 29.228-26.151-7.1121 9.4763-11.526 9.241-11.476 24.35 10.138-11.29 20.637-8.446 31.093-5.3224-13.01 2.1156-16.643 4.6199-19.528 12.011" fill="none" stroke-width="4.3643"/> <path d="m421.3 524.25c13.847-0.31099 24.808 0.37304 23.281-12.409 7.2913 11.379 0.56432 4.758 0.98819 23.074 4.8183-8.2366 14.922-4.963 16.561-19.019 4.224 9.6272 4.6052 4.2505 3.9906 22.223 6.5306-9.6418 9.9264-10.562 9.8434-20.787 7.749 5.548 4.8325 7.401 12.201 20.198 1.7838-9.3541 3.1851-10.42 3.5021-23.47 7.8512 5.3649 3.6398 25.193 12.22 42.483 0.89562-8.8877 9.5352-32.633 1.8064-44.991 8.0103 9.1845 11.795 25.759 30.337 31.284-12.127-11.703-18.166-26.699-19.013-32.218 11.2 10.61 18.252 16.818 37.97 21.644-12.055-8.6851-19.801-13.405-22.604-26.824 8.3815 8.7217 17.441 11.44 35.191 12.024-13.892-5.7983-19.963-10.417-20.873-18.436 14.59 10.713 19.892 9.2175 35.071 6.8746-11.818-2.1484-23.162-4.0102-26.318-11.239 9.1664 1.5132 15.835 4.9316 23.832 0.72107" fill="none" stroke-linecap="round" stroke-width="4.3643"/> <path d="m593.96 365.79c1.6586 2.688-1.9374 6.8088-6.2353 11.511-3.3621 3.6782 13.903 0.49937 13.903 0.49937s-8.9832 6.6586-14.169 10.325c5.0946 3.4396 14.649 7.4943 23.657 3.7987-6.6645 5.1406-11.458 7.0236-23.142 11.359 6.9365 7.345 9.8461 6.3524 17.194 13.764-9.4238 1.2325-7.6255-1.4026-20.3 3.7012 4.7819 5.1686 9.3541 11.917 14.805 12.042" fill="none" stroke-width="4.3643"/> <path d="m305.26 333.74c-1.5793-2.1592 5.059 8.2033 7.4579 12.509 6.1244-4.959 7.6648-7.328 13.894-12.324-2.9463 4.1106-5.235 15.589-2.633 18.465 4.2377-3.257 12.161-8.2365 13.061-16.044 1.1079 6.5015-0.64612 9.8159-5.3058 18.788 8.7193-0.14765 14.067-1.8132 21.147-1.3231-6.9974 3.7457-13.728 3.8729-22.781 10.234 7.8324-0.67292 16.809 3.0672 19.907 5.3845-11.407 1.3654-15.698 2.149-19.063 5.7566 6.4459-0.86369 19.56 5.0333 19.56 5.0333s-14.766 1.8288-18.69 4.94c4.7471 2.4633 14.582 4.5794 21.628 4.6192-3.4204 6.6315-9.5122 8.0496-18.402 8.6209 7.3195 4.7242 9.649 4.1729 17.825 7.9744-7.3304 3.0493-6.6714 0.8198-15.354 7.6755 5.4466 0.94401 10.212 2.1329 15.502 5.6428-9.8446 0.15623-11.984 6.1656-12.199 11.545 6.2727-6.4291 14.199-4.5808 20.338-3.5868-3.8358 3.1619-13.037 11.138-10.471 17.452 7.574-9.2164 12.294-7.3684 18.078-10.041-2.5115 6.2418-6.7488 14.684-3.6504 22.099 5.8781-7.1946 7.5484-8.5621 13.724-14.221-1.1198 8.2778 1.8754 11.872 0.59729 19.266 6.5003-5.5412 15.479-17.846 13.544-25.311" fill="none" stroke-width="4.3643"/> </g> </g> </svg>